<svg xmlns="http://www.w3.org/2000/svg" width="29.999" height="24" viewBox="0 0 29.999 24"><path d="M11.631,21.043c0,1.306-.681,3.444-2.294,3.444s-2.294-2.137-2.294-3.444S7.725,17.6,9.337,17.6s2.294,2.137,2.294,3.444ZM30,17.887a13.545,13.545,0,0,1-1.094,5.937C26.537,28.612,20.024,28.5,15.362,28.5c-4.737,0-11.637.169-14.1-4.675A13.378,13.378,0,0,1,0,17.887a10.748,10.748,0,0,1,2.594-7.1,9.783,9.783,0,0,1-.481-3.05A6.223,6.223,0,0,1,3.025,4.5a9.765,9.765,0,0,1,6.8,2.25,23.939,23.939,0,0,1,5.544-.625,21.559,21.559,0,0,1,5.025.575A9.659,9.659,0,0,1,27.13,4.5a6.165,6.165,0,0,1,.912,3.237,9.646,9.646,0,0,1-.481,3.012A10.768,10.768,0,0,1,30,17.887ZM25.98,21.043c0-2.744-1.669-5.162-4.594-5.162a25.7,25.7,0,0,0-3.5.375,18.363,18.363,0,0,1-2.819.2,18.476,18.476,0,0,1-2.819-.2,25.28,25.28,0,0,0-3.5-.375c-2.925,0-4.594,2.419-4.594,5.162,0,5.487,5.025,6.331,9.4,6.331h3.012c4.394,0,9.412-.837,9.412-6.331ZM20.818,17.6c-1.612,0-2.294,2.137-2.294,3.444s.681,3.444,2.294,3.444,2.294-2.137,2.294-3.444S22.431,17.6,20.818,17.6Z" transform="translate(0 -4.5)" fill="#f5f5f5"/></svg>