<svg xmlns="http://www.w3.org/2000/svg" width="17.333" height="13" viewBox="0 0 17.333 13"><path d="M17.333,9.092a1.527,1.527,0,0,1-1.517,1.484h-3.38a1.665,1.665,0,0,1-.213,2.4,1.551,1.551,0,0,1-.557,2.11c.3,1.664-.743,2.413-2.458,2.413-.093,0-.449-.007-.542-.007-2.1.006-2.6-1.052-4.189-1.3a.812.812,0,0,1-.686-.8V9.587h0A1.625,1.625,0,0,1,4.755,8.1c.978-.44,3.23-1.66,3.64-2.618A1.443,1.443,0,0,1,9.75,4.5a1.626,1.626,0,0,1,1.494,2.265,4.6,4.6,0,0,1-.479.844h5.052A1.551,1.551,0,0,1,17.333,9.092ZM3.25,9.1v6.5a.812.812,0,0,1-.812.812H.812A.812.812,0,0,1,0,15.6V9.1a.812.812,0,0,1,.812-.812H2.437A.812.812,0,0,1,3.25,9.1ZM2.3,14.792a.677.677,0,1,0-.677.677A.677.677,0,0,0,2.3,14.792Z" transform="translate(0 -4.5)" fill="#f5f5f5"/></svg>